PathFileType	4	(X/Y/Z)	Patient4_TMGait_0pt5_01_left_07.trc.trc
DataRate	CameraRate	NumFrames	NumMarkers	Units	OrigDataRate	OrigDataStartFrame	OrigNumFrames
73.684210526316	73.684210526316	7	33	mm	73.684210526316	53	       141
Frame#	Time	L.ASIS			Sacral			L.Shoulder			Chest			R.Shoulder			Neck			R.ASIS			R.Thigh.Superior			R.Thigh.Lateral			R.Thigh.Inferior			R.Patella			L.Thigh.Superior			L.Thigh.Lateral			L.Thigh.Inferior			L.Patella			L.Shank.Superior			L.Shank.Lateral			L.Shank.Inferior			R.Shank.Superior			R.Shank.Lateral			R.Shank.Inferior			R.Heel			R.Midfoot.Superior			R.Midfoot.Lateral			R.Toe			L.Heel			L.Midfoot.Lateral			L.Midfoot.Superior			L.Toe			L.Elbow			L.Wrist			R.Elbow			R.Wrist			
		X1	Y1	Z1	X2	Y2	Z2	X3	Y3	Z3	X4	Y4	Z4	X5	Y5	Z5	X6	Y6	Z6	X7	Y7	Z7	X8	Y8	Z8	X9	Y9	Z9	X10	Y10	Z10	X11	Y11	Z11	X12	Y12	Z12	X13	Y13	Z13	X14	Y14	Z14	X15	Y15	Z15	X16	Y16	Z16	X17	Y17	Z17	X18	Y18	Z18	X19	Y19	Z19	X20	Y20	Z20	X21	Y21	Z21	X22	Y22	Z22	X23	Y23	Z23	X24	Y24	Z24	X25	Y25	Z25	X26	Y26	Z26	X27	Y27	Z27	X28	Y28	Z28	X29	Y29	Z29	X30	Y30	Z30	X31	Y31	Z31	X32	Y32	Z32	X33	Y33	Z33	

53	10.115714285714	721.009684731448	964.985660228334	299.941851468933	501.470761069719	1008.456467481266	451.700671752493	687.772059255477	1444.653380418141	289.450092625620	781.191620920664	1364.835787060218	451.899568309058	689.617052244964	1434.942159277983	624.988198754347	685.423976417840	1498.520928357282	440.651035672255	725.508585742492	944.535786309614	574.010977449525	812.791594796606	780.683501559220	530.702279344284	783.058709175983	657.329642558256	597.713210800197	866.587771521723	622.213069058276	508.215494320197	890.062844070783	505.996600922990	526.335102794340	770.539123562548	751.388573420444	339.562252098132	684.289486409185	634.488633681608	281.064545778179	758.931163753340	557.900405719895	356.281549088781	756.749933868762	487.170350473454	370.440736614420	729.296142387067	415.078122143904	360.437797767856	643.685701454215	301.845002724947	302.652873388098	679.806317493416	192.009830589657	382.354357495818	811.247345660049	432.441216981224	538.651767053533	690.347853103030	395.880910536820	601.677406476142	672.517789214963	286.831069483889	555.445237979130	471.805374110731	239.320564002068	530.634855529855	631.930638571986	161.140584825708	570.561548198834	522.811756999234	171.915637150208	603.005534817795	682.687956901352	41.459882256702	595.201840816936	541.929712121870	37.758729121213	412.221409020043	622.917743944616	35.391453098966	338.100391780317	704.256482881913	95.890111783703	371.976800493049	834.338151755068	40.836206894201	354.596736295238	633.213412891474	1119.416235577940	123.075571147981	804.224344524973	923.799905970297	147.983865847022	593.498420962083	1098.099344020671	723.091103132350	616.588536777422	840.296037611382	754.740809299008	
54	10.129285714286	720.652236569274	965.097139674423	299.827005932171	500.951784841493	1008.873108032170	451.142398015067	689.274676551532	1444.912048377540	289.358403872790	781.599013971864	1364.835580151545	452.292440814506	689.300794977676	1435.052373386128	625.022366945988	686.298917589572	1498.734981617711	440.602337639210	724.868794430142	945.181843987021	573.950971989295	813.910468380189	784.079166040029	529.590993955700	786.929664426933	660.107256849144	596.810943247869	870.432982716902	626.494774464085	506.775905633136	896.345622244873	511.229377966776	524.886793911929	768.425797034644	750.438723384360	339.224739312804	680.924416396678	634.416048849086	280.664607522218	754.695378822303	557.076969355515	355.908061158339	751.836117883871	486.419506829537	370.075451827120	724.123092179818	414.613177848800	360.077125432838	637.920604095733	301.763881129111	302.452354716353	673.425588283811	191.799219455843	382.246126031065	820.420218904110	435.281921512759	537.426722038457	701.075292917232	393.646858580344	600.275811353313	687.978917979458	283.852925930152	554.068246702524	488.887904369770	225.816367362688	529.028185081354	653.429423439647	157.770965854244	569.386415765879	543.985426247550	162.612156210823	602.207679932613	711.427886409620	42.024209351031	595.760363232313	535.086493458631	37.821484366011	412.199014366320	616.082606477835	35.413174683590	338.089738884211	697.465694901044	95.890251650284	371.905629607672	827.514453598531	40.729085290715	354.529213845878	635.008026119694	1119.752961123931	122.773723683670	809.114385462864	927.390583297171	149.830200316918	587.392595350530	1098.918549594271	719.385743120631	605.446385418213	840.363651919948	748.434038273103	
55	10.142857142857	720.248714492686	965.147912727822	299.724262128220	500.463286947287	1009.239521482151	450.639813674666	690.745858447842	1445.119419698759	289.386449793691	782.000888872590	1364.777734809652	452.785703834591	688.952838360666	1435.047252922953	625.131181441686	687.158006513581	1498.894058351965	440.681173558626	724.263794396593	945.718237983278	573.880849806045	814.663520540626	786.935217781687	528.761718092825	789.884725884364	662.456252242319	596.285401182187	873.395469567331	630.048517924752	505.942301395127	901.430973916568	516.029415163151	524.111650918153	766.270778857848	749.481447731996	338.903007083739	677.541798049417	634.322194540104	280.255795637047	750.450751713322	556.244619671844	355.509134268207	746.929306800975	485.666067396817	369.663676480408	718.949595969399	414.123945789342	359.704323788684	632.148023394202	301.672346050318	302.258039931698	667.060211802364	191.578229342274	382.128971011395	828.837356933756	437.679956023915	536.768455659190	711.652514289065	390.428706568950	599.544977007649	703.820497396916	280.116766194102	553.208051829338	507.344949230326	210.827903864099	528.008591809199	675.860829945133	153.751935298388	568.687359514324	566.471967948759	152.230639983305	601.919942803866	741.264945081068	42.509372814853	596.652191383969	528.261510640666	37.891858893084	412.171143325934	609.252582280401	35.438805414955	338.085233886190	690.683646385884	95.884359555311	371.838217138570	820.699700315772	40.608316621327	354.461298415929	636.630814183497	1119.965697992113	122.728642355050	813.387041458723	930.564547157613	152.040496617139	581.837175894575	1099.606303035464	715.937961575540	595.714699291279	840.471656327463	742.466654440391	
56	10.156428571429	719.827185812940	965.134128139623	299.620623250172	500.021884054776	1009.554016229648	450.177085850938	692.170350874605	1445.279915539859	289.528911775736	782.405064047991	1364.657008922296	453.355458836029	688.602527633423	1434.915463145756	625.293945043139	688.012813436937	1498.992029563125	440.880796142744	723.701008909233	946.146128343170	573.798611275998	815.038996975844	789.159501618054	528.235757340219	791.822502273482	664.291948983950	596.153009575950	875.365759558582	632.747960591718	505.729615744772	905.193958441693	520.288380345195	523.992575029032	764.100470122555	748.516543395126	338.615230406296	674.175865737520	634.199910266762	279.850652480595	746.222904396213	555.400191565831	355.109988615591	742.048811004082	484.905421261848	369.233573017193	713.792294895923	413.604559426252	359.340208943001	626.381387163878	301.569074012246	302.081816523301	660.719098293053	191.343347420395	382.016517338960	836.379529557475	439.609650926971	536.668861021773	722.102562001245	386.267046134896	599.531238842462	720.011004010483	275.767670005197	552.881839352107	527.315443336331	194.655347870000	527.670210694491	699.186971292054	149.290443936030	568.449006119860	590.352661115415	141.025541604203	602.164091170941	772.023330515737	43.149632947810	597.724590875651	521.454463608262	37.968078102816	412.137200090366	602.425947426086	35.467424822920	338.087860799492	683.905979976749	95.870548786414	371.780620872964	813.890365791494	40.482104378889	354.393894462926	638.094409697477	1120.065264759202	122.921036961987	817.058832700115	933.307399144310	154.572054820852	576.947422061162	1100.123632428185	712.824126757666	587.459460197486	840.533216202222	736.947273201003	
57	10.170000000000	719.419281740601	965.053956116327	299.511996876788	499.642241589808	1009.817497764319	449.741659407148	693.538556390487	1445.398426378936	289.779057589685	782.822125162228	1364.468616189964	453.978218069094	688.285867733304	1434.652056377079	625.496466399317	688.875819405632	1499.024130130367	441.193403641390	723.185259334942	946.469339726632	573.711694488970	815.019851326714	790.670251535655	528.037583293002	792.650776771276	665.548396335350	596.430533642569	876.233267335491	634.491626818983	506.137836313106	907.524972568794	523.919729933356	524.488351125738	761.932129635915	747.542240909291	338.390944286843	670.855863842540	634.044552800203	279.463536914521	742.027835879549	554.541414526809	354.738618690546	737.201147883616	484.133639989422	368.815302888990	708.658811120888	413.053284956402	359.004761486234	620.627958224556	301.453600820063	301.934961925681	654.406073640777	191.092750608823	381.922280460640	842.933937446729	441.069567510771	537.100937062319	732.435146564550	381.253330531393	600.250610999569	736.491124226136	270.990725305800	553.082096344074	548.866380258909	177.653261921277	528.072312729127	723.339278988246	144.629256021550	568.622664862312	615.661260739057	129.292638659076	602.926939612151	803.518105503960	44.204609793321	598.796771903194	514.662708216722	38.047678716502	412.098541094769	595.600822474784	35.497707059657	338.098722774413	677.128556455352	95.847699862952	371.738474317779	807.082418544954	40.358028271476	354.328693436066	639.404806320494	1120.066241736793	123.330606813230	820.149209915238	935.619489062355	157.380613418786	572.831688506973	1100.433261456926	710.109758934587	580.744906586928	840.473717645506	731.966387657554	
58	10.183571428571	719.058244931767	964.906118572501	299.403604092116	499.337951133875	1010.030605133106	449.326717727014	694.846283840910	1445.478164674876	290.129420532148	783.264095938211	1364.207785910608	454.633430899510	688.042984273398	1434.258314703041	625.734358841003	689.758225048017	1498.986225133611	441.611022256357	722.720514771125	946.691527369224	573.635436889626	814.587257655604	791.401394220427	528.191558693053	792.301355332965	666.183136692717	597.134001597501	875.903583652785	635.212976992598	507.151037234994	908.346432461914	526.863681637229	525.537373133567	759.775870428363	746.555330361196	338.265051296068	667.605768023954	633.853637070897	279.108645292625	737.873083236482	553.666630340571	354.421835952585	732.382916944731	483.347668873875	368.437072844512	703.549507531855	412.471562792899	358.715038026327	614.890369334469	301.326249414470	301.826635898762	648.120686267326	190.826335631020	381.857737664208	848.404299815003	442.082150552813	538.022208128560	742.634333140288	375.532779177839	601.684019069552	753.160490165451	266.004020136183	553.777330949346	571.961275037484	160.230821562640	529.226865666591	748.191077782122	140.035365841378	569.135112955641	642.342700322487	117.366783108383	604.157403952940	835.518814779530	45.930205049091	599.684874665805	507.881596480680	38.127622923111	412.058652697958	588.775460847795	35.528213236091	338.118697832370	670.348165642840	95.815585179875	371.716215750787	800.271969021466	40.242147837732	354.268007301736	640.562093578287	1119.984771430444	123.934507573020	822.680028663399	937.512975243093	160.419962787878	569.580706122944	1100.501075057191	707.844685227100	575.628072015450	840.232630037951	727.597173561183	
59	10.197142857143	718.777195835366	964.688886001915	299.309456280698	499.122250246068	1010.191091251210	448.933033157923	696.093367029937	1445.518934553638	290.572690783256	783.742559433957	1363.869833395379	455.305675998512	687.914148404320	1433.741060131610	626.014287632145	690.667748683867	1498.874231599945	442.126388976593	722.311225394656	946.813752451069	573.590770580587	813.726161721091	791.309407020412	528.718318933365	790.747058955524	666.181489894308	598.274945458011	874.319308121064	634.890854947873	508.735427258610	907.630854215763	529.091193809807	527.062135863566	757.637945221275	745.551166475382	338.271117322461	664.444133886890	633.626255508623	278.798903500364	733.759691835418	552.774347752674	354.182118836086	727.584577002040	482.545358506155	368.122202893612	698.459981778484	411.862871612851	358.483915393257	609.168556309976	301.188129848675	301.762921220792	641.859412079945	190.545494836509	381.830850100641	852.721730085983	442.690636164519	539.378615790606	752.645346075759	369.299863726768	603.773188920035	769.864906869930	261.044825284554	554.914410499182	596.428279701831	142.842074285158	531.087715181306	773.530042045796	135.780357138701	569.901079389710	670.210157453338	105.609825371772	605.766878620595	867.713476746131	48.542884831743	600.231479121466	501.105319292520	38.204603386289	412.022672894016	581.948476380764	35.557743534874	338.148157052816	663.563001174716	95.774920264127	371.716424117021	793.455825496749	40.138509819313	354.214440598600	641.562223098968	1119.836321197761	124.706735476118	824.675537644438	939.008154762258	163.641346936154	567.258860905805	1100.298065639097	706.059763928595	572.152876753885	839.765209255303	723.895829216329	
